<svg width="23" height="29" viewBox="0 0 23 29" fill="none" xmlns="http://www.w3.org/2000/svg">
<path fill-rule="evenodd" clip-rule="evenodd" d="M13.9834 6.43434C13.1946 4.3491 11.7682 2.45532 10.1864 0.423119C9.54713 -0.398203 8.16509 0.0582422 8.16122 1.08841C8.14788 4.63486 6.36514 6.83475 4.33788 9.14552C2.3585 11.4017 0 13.8822 0 17.7468C0 23.9618 5.14873 29 11.5 29C17.8513 29 23 23.9618 23 17.7468C23 13.8214 21.1526 10.2477 18.9567 8.25643C18.2807 7.64344 17.1346 8.07368 17.0656 8.98137C16.9536 10.4571 16.2629 12.7674 14.3458 12.5964C14.8719 10.2691 14.6884 8.29765 13.9834 6.43434ZM17.0646 20.8544C17.0646 23.6991 14.5732 26.0052 11.5 26.0052C8.42684 26.0052 5.93552 23.6991 5.93552 20.8544C5.93552 19.2004 6.94257 18.117 7.99004 16.9903C9.12511 15.7692 10.3076 14.4972 10.3076 12.3924C11.9051 14.4515 13.0899 16.0715 12.295 18.6469C14.8848 19.5163 15.0772 16.4394 15.0772 16.4394C16.0607 17.3684 17.0646 19.0148 17.0646 20.8544Z" fill="#FF8D28"/>
</svg>
