<svg width="51" height="51" viewBox="0 0 51 51" fill="none" xmlns="http://www.w3.org/2000/svg">
<path fill-rule="evenodd" clip-rule="evenodd" d="M2.56066 0.43934C1.97487 -0.146447 1.02513 -0.146447 0.43934 0.43934C-0.146447 1.02513 -0.146447 1.97487 0.43934 2.56066L11.3787 13.5H8.75C5.8505 13.5 3.5 15.8505 3.5 18.75V32.25C3.5 35.1495 5.85051 37.5 8.75 37.5H19.0474C19.2928 37.5 19.5297 37.5902 19.7129 37.7535L33.0873 49.6766C35.1822 51.5442 38.5 50.0571 38.5 47.2507V40.6213L48.4393 50.5607C49.0251 51.1464 49.9749 51.1464 50.5607 50.5607C51.1464 49.9749 51.1464 49.0251 50.5607 48.4393L2.56066 0.43934ZM35.5 37.6213L14.3787 16.5H8.75C7.50736 16.5 6.5 17.5074 6.5 18.75V32.25C6.5 33.4926 7.50736 34.5 8.75 34.5H19.0474C20.0291 34.5 20.9765 34.861 21.7092 35.5142L35.0836 47.4373C35.1378 47.4856 35.1801 47.4982 35.2116 47.5023C35.2505 47.5074 35.3004 47.502 35.3522 47.4788C35.4041 47.4556 35.4413 47.4219 35.4634 47.3895C35.4813 47.3632 35.5 47.3233 35.5 47.2507V37.6213Z" fill="#222222"/>
<path d="M35.5 3.74938V27.9645L38.5 30.9645V3.74938C38.5 0.942907 35.1822 -0.544143 33.0873 1.32342L20.2781 12.7426L22.4029 14.8674L35.0836 3.56276C35.1378 3.51444 35.1801 3.50187 35.2116 3.49773C35.2505 3.49264 35.3004 3.49802 35.3522 3.52124C35.4041 3.54446 35.4413 3.57817 35.4634 3.61055C35.4813 3.63686 35.5 3.67677 35.5 3.74938Z" fill="#222222"/>
</svg>
