<svg width="69" height="51" viewBox="0 0 69 51" fill="none" xmlns="http://www.w3.org/2000/svg">
<path fill-rule="evenodd" clip-rule="evenodd" d="M29.415 0.742684C31.4131 -0.958917 34.5 0.451651 34.5 3.06631V47.9337C34.5 50.5484 31.4131 51.9589 29.415 50.2573L14.8911 37.889C14.7795 37.7939 14.6372 37.7416 14.4902 37.7416H5.54464C2.48242 37.7416 0 35.2753 0 32.2329V18.7671C0 15.7247 2.48242 13.2584 5.54464 13.2584H14.4902C14.6373 13.2584 14.7795 13.2061 14.8911 13.111L29.415 0.742684ZM30.8036 4.39711L17.2967 15.8994C16.5151 16.565 15.5196 16.9309 14.4902 16.9309H5.54464C4.5239 16.9309 3.69643 17.753 3.69643 18.7671V32.2329C3.69643 33.247 4.5239 34.0691 5.54464 34.0691H14.4902C15.5196 34.0691 16.5151 34.435 17.2967 35.1006L30.8036 46.6029V4.39711Z" fill="#222222"/>
<path d="M56.2814 1.26286C57.0032 0.545768 58.1734 0.545768 58.8952 1.26286C62.0988 4.44573 64.6401 8.22434 66.3738 12.383C68.1076 16.5416 69 20.9987 69 25.5C69 30.0012 68.1076 34.4584 66.3738 38.617C64.6401 42.7757 62.0988 46.5543 58.8952 49.7371C58.1734 50.4542 57.0032 50.4542 56.2814 49.7371C55.5596 49.02 55.5596 47.8574 56.2814 47.1403C59.1418 44.2985 61.4108 40.9247 62.9588 37.2116C64.5068 33.4986 65.3036 29.519 65.3036 25.5C65.3036 21.481 64.5068 17.5014 62.9588 13.7884C61.4108 10.0753 59.1418 6.70154 56.2814 3.8597C55.5596 3.1426 55.5596 1.97996 56.2814 1.26286Z" fill="#222222"/>
<path d="M48.4401 11.6502C47.7183 10.9331 46.5481 10.9331 45.8263 11.6502C45.1046 12.3673 45.1046 13.5299 45.8263 14.247C47.3137 15.7248 48.4936 17.4792 49.2986 19.4099C50.1035 21.3407 50.5179 23.4101 50.5179 25.5C50.5179 27.5899 50.1035 29.6593 49.2986 31.5901C48.4936 33.5208 47.3137 35.2752 45.8263 36.753C45.1046 37.4701 45.1046 38.6327 45.8263 39.3498C46.5481 40.0669 47.7183 40.0669 48.4401 39.3498C50.2707 37.531 51.7229 35.3718 52.7136 32.9954C53.7044 30.6191 54.2143 28.0721 54.2143 25.5C54.2143 22.9279 53.7044 20.3809 52.7136 18.0045C51.7229 15.6282 50.2707 13.469 48.4401 11.6502Z" fill="#222222"/>
</svg>
