<svg width="54" height="51" viewBox="0 0 54 51" fill="none" xmlns="http://www.w3.org/2000/svg">
<path fill-rule="evenodd" clip-rule="evenodd" d="M34.3636 3.06631C34.3636 0.451651 31.289 -0.958917 29.2987 0.742684L14.8323 13.111C14.721 13.2061 14.5794 13.2584 14.4329 13.2584H5.52273C2.47261 13.2584 0 15.7247 0 18.7671V32.2329C0 35.2753 2.47261 37.7416 5.52273 37.7416H14.4329C14.5794 37.7416 14.721 37.7939 14.8323 37.889L29.2987 50.2573C31.289 51.9589 34.3636 50.5484 34.3636 47.9337V3.06631ZM17.2284 15.8994L30.6818 4.39711V46.6029L17.2284 35.1006C16.4498 34.435 15.4583 34.0691 14.4329 34.0691H5.52273C4.50602 34.0691 3.68182 33.247 3.68182 32.2329V18.7671C3.68182 17.753 4.50602 16.9309 5.52273 16.9309H14.4329C15.4583 16.9309 16.4498 16.565 17.2284 15.8994Z" fill="#222222"/>
<path d="M48.2486 11.6502C47.5297 10.9331 46.3641 10.9331 45.6452 11.6502C44.9263 12.3673 44.9263 13.5299 45.6452 14.247C47.1267 15.7248 48.3019 17.4792 49.1037 19.4099C49.9055 21.3407 50.3182 23.4101 50.3182 25.5C50.3182 27.5899 49.9055 29.6593 49.1037 31.5901C48.3019 33.5208 47.1267 35.2752 45.6452 36.753C44.9263 37.4701 44.9263 38.6327 45.6452 39.3498C46.3641 40.0669 47.5297 40.0669 48.2486 39.3498C50.072 37.531 51.5185 35.3718 52.5053 32.9954C53.4921 30.6191 54 28.0721 54 25.5C54 22.9279 53.4921 20.3809 52.5053 18.0045C51.5185 15.6282 50.072 13.469 48.2486 11.6502Z" fill="#222222"/>
</svg>
