<svg width="40" height="30" viewBox="0 0 40 30" fill="none" xmlns="http://www.w3.org/2000/svg">
<path d="M22.6238 0.659896C20.6897 -0.219965 18.3999 -0.219965 16.4657 0.659896L1.54637 7.4468C-0.524445 8.38883 -0.512233 11.0651 1.56383 11.9932L16.5081 18.6742C18.4192 19.5286 20.6703 19.5286 22.5815 18.6742L34.2034 13.4785V19.4197C33.465 19.9395 32.9818 20.8032 32.9818 21.7808C32.9818 23.3695 34.2579 24.6575 35.8321 24.6575C37.4063 24.6575 38.6824 23.3695 38.6824 21.7808C38.6824 20.8032 38.1993 19.9395 37.4608 19.4197V12.0222L37.5257 11.9932C39.6018 11.0651 39.614 8.38882 37.5432 7.4468L22.6238 0.659896Z" fill="#B750D1"/>
<path d="M8.14366 17.4005V23.4247C8.14366 27.5343 13.8442 30 19.5448 30C25.2453 30 30.9459 27.5343 30.9459 23.4247V17.4005L22.5815 21.1399C20.6703 21.9943 18.4192 21.9943 16.5081 21.1399L8.14366 17.4005Z" fill="#B750D1"/>
</svg>
