<svg width="35" height="32" viewBox="0 0 35 32" fill="none" xmlns="http://www.w3.org/2000/svg">
<path fill-rule="evenodd" clip-rule="evenodd" d="M13.2344 0C10.7577 0 8.75 1.93225 8.75 4.31579V6.73684H3.5C1.567 6.73684 0 8.24494 0 10.1053V14.309C0 14.3398 0.000432269 14.3704 0.00129196 14.401L16.3685 19.1266C17.1066 19.3396 17.8934 19.3396 18.6314 19.1266L34.9987 14.401C34.9996 14.3704 35 14.3398 35 14.309V10.1053C35 8.24494 33.433 6.73684 31.5 6.73684H26.25V4.31579C26.25 1.93225 24.2423 0 21.7656 0H13.2344ZM22.75 6.73684V4.31579C22.75 3.79257 22.3093 3.36842 21.7656 3.36842H13.2344C12.6907 3.36842 12.25 3.79257 12.25 4.31579V6.73684H22.75Z" fill="#00BEA2"/>
<path d="M1.75 26.1053V17.5434L15.6143 21.5463C16.8443 21.9015 18.1556 21.9015 19.3857 21.5463L33.25 17.5434V26.1053C33.25 29.3608 30.5077 32 27.125 32H7.875C4.49225 32 1.75 29.3608 1.75 26.1053Z" fill="#00BEA2"/>
</svg>
