<svg width="51" height="45" viewBox="0 0 51 45" fill="none" xmlns="http://www.w3.org/2000/svg">
<path d="M18.159 0H12.6813C11.0113 0 9.43638 0.816819 8.4203 2.20994L0.906016 12.5125C0.481714 13.0943 0.180319 13.7389 0 14.4096H11.5411L18.159 0Z" fill="#2291FF"/>
<path d="M0.433837 18.6125C0.655545 19.0472 0.934818 19.4572 1.27102 19.8299L22.9303 43.8389C24.3269 45.387 26.6731 45.387 28.0697 43.8389L49.729 19.8299C50.0652 19.4572 50.3445 19.0472 50.5662 18.6125H39.091L27.2517 41.2397C26.9003 41.9112 26.2291 42.3284 25.5 42.3284C24.7709 42.3284 24.0996 41.9112 23.7483 41.2397L11.909 18.6125H0.433837Z" fill="#2291FF"/>
<path d="M51 14.4096C50.8197 13.7389 50.5183 13.0943 50.094 12.5125L42.5797 2.20994C41.5636 0.816819 39.9887 0 38.3187 0H32.841L39.4588 14.4096H51Z" fill="#2291FF"/>
<path d="M28.4011 0L35.019 14.4096H15.981L22.5988 0H28.4011Z" fill="#2291FF"/>
<path d="M25.5 35.8664L16.4721 18.6125H34.5279L25.5 35.8664Z" fill="#2291FF"/>
</svg>
