<svg width="38" height="30" viewBox="0 0 38 30" fill="none" xmlns="http://www.w3.org/2000/svg">
<path d="M17.4903 2.77633C12.7754 -0.417272 5.93389 -0.173791 2.36584 0.235268C0.969223 0.395383 0 1.51694 0 2.81661V23.536C0 25.2367 1.63702 26.5702 3.47847 26.5463C7.00838 26.5005 12.4938 26.9162 16.3933 29.493C16.7234 29.7112 17.0953 29.8802 17.4903 30V2.77633Z" fill="#366AF3"/>
<path d="M20.5133 30C20.9083 29.8802 21.2803 29.7112 21.6105 29.493C25.5099 26.9162 30.9954 26.5005 34.5253 26.5463C36.3667 26.5702 38.0037 25.2367 38.0037 23.536V2.81661C38.0037 1.51694 37.0345 0.395383 35.6379 0.235268C32.0698 -0.173795 25.2282 -0.417276 20.5133 2.77642V30Z" fill="#366AF3"/>
</svg>
