<svg width="30" height="30" viewBox="0 0 30 30" fill="none" xmlns="http://www.w3.org/2000/svg">
<path fill-rule="evenodd" clip-rule="evenodd" d="M7.14286 0C3.19797 0 0 2.48731 0 5.55555V25C0 27.7614 2.87817 30 6.42857 30H27.8571C29.0406 30 30 29.2538 30 28.3333C30 27.4129 29.0406 26.6667 27.8571 26.6667H6.42857C5.2451 26.6667 4.28571 25.9205 4.28571 25C4.28571 24.0795 5.2451 23.3333 6.42857 23.3333H25.9821C28.2011 23.3333 30 21.9342 30 20.2083V3.125C30 1.39911 28.2011 0 25.9821 0H7.14286ZM17.1429 18.3333C17.1429 19.2538 16.1835 20 15 20C13.8165 20 12.8571 19.2538 12.8571 18.3333C12.8571 17.4128 13.8165 16.6666 15 16.6666C16.1835 16.6666 17.1429 17.4128 17.1429 18.3333ZM11.8578 9.29948C11.8578 8.37836 13.044 7.34209 15 7.34209C16.9561 7.34209 18.1422 8.37836 18.1422 9.29948C18.1422 9.7754 17.9721 10.0318 17.7709 10.2202C17.5225 10.4529 17.1503 10.6536 16.565 10.9191C16.4963 10.9503 16.4213 10.9836 16.3415 11.0191C15.8505 11.2375 15.1783 11.5364 14.6532 11.9127C13.9441 12.4208 13.3929 13.1305 13.3929 14.1106C13.3929 14.8009 14.1124 15.3606 15 15.3606C15.8876 15.3606 16.6072 14.8009 16.6072 14.1106C16.6072 13.9582 16.6497 13.8813 16.8311 13.7514C17.0683 13.5814 17.3758 13.443 17.8864 13.2132C17.9787 13.1716 18.078 13.1269 18.1844 13.0787C18.7865 12.8055 19.6016 12.4187 20.2437 11.8174C20.933 11.1718 21.3565 10.3478 21.3565 9.29948C21.3565 6.67781 18.29 4.84209 15 4.84209C11.7101 4.84209 8.64356 6.67781 8.64356 9.29948C8.64356 9.98983 9.3631 10.5495 10.2507 10.5495C11.1383 10.5495 11.8578 9.98983 11.8578 9.29948Z" fill="#FC7630"/>
</svg>
