<svg width="24" height="14" viewBox="0 0 24 14" fill="none" xmlns="http://www.w3.org/2000/svg">
<path d="M4 1.75C4 0.783502 4.7835 0 5.75 0H7.25C8.2165 0 9 0.783502 9 1.75V5.5H15V1.75C15 0.783502 15.7835 0 16.75 0H18.25C19.2165 0 20 0.783502 20 1.75V3H21.25C22.2165 3 23 3.7835 23 4.75V6C23.5523 6 24 6.44772 24 7C24 7.55228 23.5523 8 23 8V9.25C23 10.2165 22.2165 11 21.25 11H20V12.25C20 13.2165 19.2165 14 18.25 14H16.75C15.7835 14 15 13.2165 15 12.25V8.5H9V12.25C9 13.2165 8.2165 14 7.25 14H5.75C4.7835 14 4 13.2165 4 12.25V11H2.75C1.7835 11 1 10.2165 1 9.25V8C0.447715 8 0 7.55228 0 7C0 6.44772 0.447715 6 1 6V4.75C1 3.7835 1.7835 3 2.75 3H4V1.75Z" fill="#222222"/>
</svg>
