<svg width="22" height="21" viewBox="0 0 22 21" fill="none" xmlns="http://www.w3.org/2000/svg">
<path d="M2.25 1.125C2.25 0.50368 1.74632 0 1.125 0C0.50368 0 0 0.50368 0 1.125V16.125C0 18.4032 1.84683 20.25 4.125 20.25H20.125C20.7463 20.25 21.25 19.7463 21.25 19.125C21.25 18.5037 20.7463 18 20.125 18H4.125C3.08947 18 2.25 17.1605 2.25 16.125V1.125Z" fill="#222222"/>
<path d="M20.2071 5.83211C20.5976 5.44158 20.5976 4.80842 20.2071 4.41789C19.8166 4.02737 19.1834 4.02737 18.7929 4.41789L13.125 10.0858L10.6232 7.58395C10.0374 6.99816 9.08763 6.99816 8.50184 7.58395L4.91789 11.1679C4.52737 11.5584 4.52737 12.1916 4.91789 12.5821C5.30842 12.9726 5.94158 12.9726 6.33211 12.5821L9.5625 9.35171L12.0643 11.8536C12.6501 12.4393 13.5999 12.4393 14.1857 11.8536L20.2071 5.83211Z" fill="#222222"/>
</svg>
