<svg width="20" height="20" viewBox="0 0 20 20" fill="none" xmlns="http://www.w3.org/2000/svg">
<path fill-rule="evenodd" clip-rule="evenodd" d="M7.5 0C6.11929 0 5 1.11929 5 2.5V4H4C1.79086 4 0 5.79086 0 8V16C0 18.2091 1.79086 20 4 20H16C18.2091 20 20 18.2091 20 16V8C20 5.79086 18.2091 4 16 4H15V2.5C15 1.11929 13.8807 0 12.5 0H7.5ZM13 4V2.5C13 2.22386 12.7761 2 12.5 2H7.5C7.22386 2 7 2.22386 7 2.5V4H13ZM10 8C10.5523 8 11 8.44771 11 9V11H13C13.5523 11 14 11.4477 14 12C14 12.5523 13.5523 13 13 13H11V15C11 15.5523 10.5523 16 10 16C9.44772 16 9 15.5523 9 15V13H7C6.44771 13 6 12.5523 6 12C6 11.4477 6.44771 11 7 11H9V9C9 8.44771 9.44772 8 10 8Z" fill="#222222"/>
</svg>
