<svg width="24" height="17" viewBox="0 0 24 17" fill="none" xmlns="http://www.w3.org/2000/svg">
<path d="M12 8C14.2091 8 16 6.20914 16 4C16 1.79086 14.2091 0 12 0C9.79086 0 8 1.79086 8 4C8 6.20914 9.79086 8 12 8Z" fill="#222222"/>
<path d="M20 9C21.6569 9 23 7.65685 23 6C23 4.34315 21.6569 3 20 3C18.3432 3 17 4.34315 17 6C17 7.65685 18.3432 9 20 9Z" fill="#222222"/>
<path d="M5 14.5C5 11.4624 7.46243 9 10.5 9H13.5C16.5376 9 19 11.4624 19 14.5V15.5C19 16.3284 18.3284 17 17.5 17H6.5C5.67157 17 5 16.3284 5 15.5V14.5Z" fill="#222222"/>
<path d="M5.13213 10.0068C4.11337 11.2226 3.5 12.7897 3.5 14.5V15.5C3.5 15.6703 3.5142 15.8374 3.54148 16H1.83333C0.820812 16 0 15.1548 0 14.1122C0 12.5274 0.838668 11.2251 2.25218 10.6088C3.08431 10.2459 4.09858 10.0453 5.13213 10.0068Z" fill="#222222"/>
<path d="M20.4585 16C20.4858 15.8374 20.5 15.6703 20.5 15.5V14.5C20.5 12.7897 19.8866 11.2226 18.8679 10.0068C19.9014 10.0453 20.9157 10.2459 21.7478 10.6088C23.1613 11.2251 24 12.5274 24 14.1121C24 15.1548 23.1792 16 22.1667 16H20.4585Z" fill="#222222"/>
<path d="M7 6C7 7.65685 5.65685 9 4 9C2.34315 9 1 7.65685 1 6C1 4.34315 2.34315 3 4 3C5.65685 3 7 4.34315 7 6Z" fill="#222222"/>
</svg>
