<svg width="114" height="96" viewBox="0 0 114 96" fill="none" xmlns="http://www.w3.org/2000/svg">
<path d="M25.0786 27.1401C26.3628 25.862 28.4449 25.862 29.7291 27.1401L44.4883 41.8286C47.9129 45.2368 47.9129 50.7626 44.4883 54.1709L29.7291 68.8594C28.4449 70.1374 26.3628 70.1374 25.0786 68.8594C23.7943 67.5813 23.7943 65.5091 25.0786 64.231L39.8377 49.5425C40.6938 48.6905 40.6938 47.309 39.8377 46.457L25.0786 31.7684C23.7943 30.4904 23.7943 28.4182 25.0786 27.1401Z" fill="#222222"/>
<path d="M60.2885 63.2727C58.4723 63.2727 57 64.738 57 66.5455C57 68.3529 58.4723 69.8182 60.2885 69.8182H86.5962C88.4123 69.8182 89.8846 68.3529 89.8846 66.5455C89.8846 64.738 88.4123 63.2727 86.5962 63.2727H60.2885Z" fill="#222222"/>
<path fill-rule="evenodd" clip-rule="evenodd" d="M0 22.9091C0 10.2568 10.3061 0 23.0192 0H90.9808C103.694 0 114 10.2568 114 22.9091V73.0909C114 85.7433 103.694 96 90.9808 96H23.0192C10.3061 96 0 85.7432 0 73.0909V22.9091ZM23.0192 6.54545C13.9384 6.54545 6.57692 13.8717 6.57692 22.9091V73.0909C6.57692 82.1283 13.9384 89.4546 23.0192 89.4546H90.9808C100.062 89.4546 107.423 82.1283 107.423 73.0909V22.9091C107.423 13.8717 100.062 6.54545 90.9808 6.54545H23.0192Z" fill="#222222"/>
</svg>
