<svg width="114" height="105" viewBox="0 0 114 105" fill="none" xmlns="http://www.w3.org/2000/svg">
<path d="M58.0755 0C50.9479 0 45.1698 5.75634 45.1698 12.8571V13.9286C45.1698 15.7038 46.6143 17.1429 48.3962 17.1429C50.1781 17.1429 51.6226 15.7038 51.6226 13.9286V12.8571C51.6226 9.30674 54.5117 6.42857 58.0755 6.42857H101.094C104.658 6.42857 107.547 9.30674 107.547 12.8571V92.1429C107.547 95.6933 104.658 98.5714 101.094 98.5714H80.6604C78.8785 98.5714 77.434 100.011 77.434 101.786C77.434 103.561 78.8785 105 80.6604 105H101.094C108.222 105 114 99.2437 114 92.1429V12.8571C114 5.75634 108.222 0 101.094 0H58.0755Z" fill="#222222"/>
<path fill-rule="evenodd" clip-rule="evenodd" d="M0 39.6429C0 30.7669 7.22258 23.5714 16.1321 23.5714H69.9057C78.8152 23.5714 86.0377 30.7669 86.0377 39.6429V71.7857C86.0377 80.6617 78.8152 87.8571 69.9057 87.8571H55.9243V98.5712H63.4529C65.2348 98.5712 66.6793 100.01 66.6793 101.785C66.6793 103.561 65.2348 105 63.4529 105H22.585C20.8031 105 19.3586 103.561 19.3586 101.785C19.3586 100.01 20.8031 98.5712 22.585 98.5712H30.113V87.8571H16.1321C7.22258 87.8571 0 80.6617 0 71.7857V39.6429ZM36.5658 87.8571H49.4715V98.5712H36.5658V87.8571ZM16.1321 30C10.7864 30 6.45283 34.3173 6.45283 39.6429V71.7857C6.45283 77.1113 10.7864 81.4286 16.1321 81.4286H69.9057C75.2514 81.4286 79.5849 77.1113 79.5849 71.7857V39.6429C79.5849 34.3173 75.2514 30 69.9057 30H16.1321Z" fill="#222222"/>
</svg>
