<svg width="20" height="21" viewBox="0 0 20 21" fill="none" xmlns="http://www.w3.org/2000/svg">
<path d="M9.85084 12C13.1646 12 15.8508 9.31371 15.8508 6C15.8508 2.68629 13.1646 0 9.85084 0C6.53713 0 3.85084 2.68629 3.85084 6C3.85084 9.31371 6.53713 12 9.85084 12Z" fill="#222222"/>
<path fill-rule="evenodd" clip-rule="evenodd" d="M9.85084 13C6.86561 13 1.11492 13.3946 0.0298101 19.0095C-0.179778 20.094 0.746273 21 1.85084 21H17.8508C18.9554 21 19.8815 20.094 19.6719 19.0095C18.5868 13.3946 12.8361 13 9.85084 13ZM9.85083 18C9.85083 17.4477 10.2985 17 10.8508 17H14.8508C15.4031 17 15.8508 17.4477 15.8508 18C15.8508 18.5523 15.4031 19 14.8508 19H10.8508C10.2985 19 9.85083 18.5523 9.85083 18Z" fill="#222222"/>
</svg>
