<svg width="20" height="20" viewBox="0 0 20 20" fill="none" xmlns="http://www.w3.org/2000/svg">
<path d="M6.53418 9.98937C6.53418 8.84923 6.60582 7.75688 6.73668 6.73938H13.2647C13.3956 7.75688 13.4672 8.84923 13.4672 9.98937C13.4672 11.1295 13.3956 12.2219 13.2647 13.2394H6.73668C6.60582 12.2219 6.53418 11.1295 6.53418 9.98937Z" fill="#222222"/>
<path d="M5.2251 13.2394C5.10051 12.2072 5.03418 11.1157 5.03418 9.98937C5.03418 8.86304 5.10051 7.77156 5.2251 6.73938H0.539987C0.189995 7.75834 0 8.85168 0 9.9894C0 11.1271 0.189991 12.2204 0.539975 13.2394H5.2251Z" fill="#222222"/>
<path d="M1.19794 14.7394H5.45451C5.67054 15.8947 5.96399 16.9479 6.32105 17.8573C6.57321 18.4996 6.86288 19.085 7.18956 19.5891C4.60567 18.8338 2.45491 17.0637 1.19794 14.7394Z" fill="#222222"/>
<path d="M6.98251 14.7394H13.0189C12.8253 15.6995 12.5759 16.5659 12.2841 17.3092C11.9228 18.2295 11.5111 18.9234 11.0923 19.3745C10.6744 19.8247 10.3049 19.9787 10.0007 19.9787C9.69653 19.9787 9.32702 19.8247 8.90912 19.3745C8.4903 18.9234 8.07863 18.2295 7.71729 17.3092C7.42548 16.5659 7.17605 15.6995 6.98251 14.7394Z" fill="#222222"/>
<path d="M14.5469 14.7394C14.3309 15.8947 14.0374 16.9479 13.6803 17.8573C13.4283 18.4994 13.1387 19.0846 12.8122 19.5886C15.3953 18.8331 17.5454 17.0632 18.8021 14.7394H14.5469Z" fill="#222222"/>
<path d="M19.46 13.2394C19.81 12.2204 20 11.1271 20 9.9894C20 8.85168 19.81 7.75834 19.46 6.73938H14.7763C14.9009 7.77156 14.9672 8.86304 14.9672 9.98937C14.9672 11.1157 14.9009 12.2072 14.7763 13.2394H19.46Z" fill="#222222"/>
<path d="M13.0189 5.23938H6.9825C7.17605 4.27922 7.42547 3.41283 7.71729 2.66959C8.07863 1.74927 8.4903 1.05538 8.90912 0.6042C9.32702 0.154 9.69653 0 10.0007 0C10.3049 0 10.6744 0.154 11.0923 0.6042C11.5111 1.05538 11.9228 1.74927 12.2841 2.66959C12.5759 3.41283 12.8254 4.27922 13.0189 5.23938Z" fill="#222222"/>
<path d="M14.5469 5.23938H18.802C17.5454 2.91558 15.3953 1.14575 12.8122 0.39025C13.1387 0.894206 13.4283 1.4794 13.6803 2.12139C14.0374 3.03082 14.3309 4.08405 14.5469 5.23938Z" fill="#222222"/>
<path d="M1.19796 5.23938H5.45451C5.67054 4.08405 5.96399 3.03082 6.32105 2.12139C6.57319 1.47918 6.86285 0.893816 7.18952 0.389745C4.60566 1.14497 2.45492 2.91507 1.19796 5.23938Z" fill="#222222"/>
</svg>
