<svg width="22" height="17" viewBox="0 0 22 17" fill="none" xmlns="http://www.w3.org/2000/svg">
<path d="M7.25 1.12686C7.25 0.233903 8.24037 -0.30313 8.98874 0.184016L12.7445 2.62881L11.0818 5.14808C10.8536 5.49379 10.9489 5.959 11.2946 6.18717C11.6403 6.41534 12.1055 6.32005 12.3337 5.97435L14.0017 3.44714L15.8386 4.64286L14.2378 7.0223C14.0066 7.36598 14.0978 7.83202 14.4415 8.06323C14.7852 8.29443 15.2512 8.20325 15.4824 7.85957L17.0958 5.46127L19.6141 7.10053C21.0491 8.03462 21.935 9.60709 21.9966 11.3103H0V3.50645C0 2.46382 1.29564 1.98211 1.97676 2.77152C2.72583 3.63966 3.42376 4.5603 4.69175 4.5603C6.10463 4.5603 7.25 3.41494 7.25 2.00206V1.12686Z" fill="#222222"/>
<path d="M0 12.8103V14.0603C0 15.3029 1.00736 16.3103 2.25 16.3103H19.75C20.9926 16.3103 22 15.3029 22 14.0603V12.8103H0Z" fill="#222222"/>
</svg>
